<?xml version="1.0" encoding="UTF-8" standalone="no"?>
<svg aria-hidden="true" style="position: absolute; width: 0; height: 0; overflow: hidden;" version="1.1" xmlns="http://www.w3.org/2000/svg" xmlns:xlink="http://www.w3.org/1999/xlink" xmlns:sketch="http://www.bohemiancoding.com/sketch/ns">


<defs>

<symbol id="icon-schedule" viewBox="0 0 24 24">
<!-- <title>schedule</title> -->
<path d="M12.516 6.984v5.25l4.5 2.672-0.75 1.266-5.25-3.188v-6h1.5zM12 20.016c4.406 0 8.016-3.609 8.016-8.016s-3.609-8.016-8.016-8.016-8.016 3.609-8.016 8.016 3.609 8.016 8.016 8.016zM12 2.016c5.531 0 9.984 4.453 9.984 9.984s-4.453 9.984-9.984 9.984-9.984-4.453-9.984-9.984 4.453-9.984 9.984-9.984z"></path>
</symbol>

<symbol id="icon-attach_money" viewBox="0 0 24 24">
<title>attach_money</title>
<path d="M11.813 10.922c2.25 0.609 4.688 1.5 4.688 4.359 0 2.063-1.547 3.188-3.516 3.563v2.156h-3v-2.156c-1.922-0.422-3.516-1.641-3.656-3.844h2.203c0.094 1.172 0.891 2.109 2.953 2.109 2.203 0 2.719-1.078 2.719-1.781 0-0.938-0.516-1.828-3-2.438-2.813-0.656-4.688-1.828-4.688-4.125 0-1.922 1.547-3.188 3.469-3.609v-2.156h3v2.203c2.109 0.516 3.188 2.063 3.234 3.797h-2.203c-0.047-1.266-0.75-2.109-2.531-2.109-1.688 0-2.672 0.797-2.672 1.875 0 0.938 0.75 1.547 3 2.156z"></path>
</symbol>

<symbol id="icon-coin-dollar" viewBox="0 0 32 32">
<!-- <title>coin-dollar</title> -->
<path d="M15 2c-8.284 0-15 6.716-15 15s6.716 15 15 15c8.284 0 15-6.716 15-15s-6.716-15-15-15zM15 29c-6.627 0-12-5.373-12-12s5.373-12 12-12c6.627 0 12 5.373 12 12s-5.373 12-12 12zM16 16v-4h4v-2h-4v-2h-2v2h-4v8h4v4h-4v2h4v2h2v-2h4l-0-8h-4zM14 16h-2v-4h2v4zM18 22h-2v-4h2v4z"></path>
</symbol>

<symbol id="icon-calendar-plus-o" viewBox="0 0 26 28">
<!-- <title>calendar-plus-o</title> -->
<path d="M24 4c1.094 0 2 0.906 2 2v20c0 1.094-0.906 2-2 2h-22c-1.094 0-2-0.906-2-2v-20c0-1.094 0.906-2 2-2h2v-1.5c0-1.375 1.125-2.5 2.5-2.5h1c1.375 0 2.5 1.125 2.5 2.5v1.5h6v-1.5c0-1.375 1.125-2.5 2.5-2.5h1c1.375 0 2.5 1.125 2.5 2.5v1.5h2zM18 2.5v4.5c0 0.281 0.219 0.5 0.5 0.5h1c0.281 0 0.5-0.219 0.5-0.5v-4.5c0-0.281-0.219-0.5-0.5-0.5h-1c-0.281 0-0.5 0.219-0.5 0.5zM6 2.5v4.5c0 0.281 0.219 0.5 0.5 0.5h1c0.281 0 0.5-0.219 0.5-0.5v-4.5c0-0.281-0.219-0.5-0.5-0.5h-1c-0.281 0-0.5 0.219-0.5 0.5zM24 26v-16h-22v16h22zM14 17h3.5c0.281 0 0.5 0.219 0.5 0.5v1c0 0.281-0.219 0.5-0.5 0.5h-3.5v3.5c0 0.281-0.219 0.5-0.5 0.5h-1c-0.281 0-0.5-0.219-0.5-0.5v-3.5h-3.5c-0.281 0-0.5-0.219-0.5-0.5v-1c0-0.281 0.219-0.5 0.5-0.5h3.5v-3.5c0-0.281 0.219-0.5 0.5-0.5h1c0.281 0 0.5 0.219 0.5 0.5v3.5z"></path>
</symbol>

<symbol id="icon-close" viewBox="0 0 20 20">
<!-- <title>close</title> -->
<path d="M10 8.586l-7.071-7.071-1.414 1.414 7.071 7.071-7.071 7.071 1.414 1.414 7.071-7.071 7.071 7.071 1.414-1.414-7.071-7.071 7.071-7.071-1.414-1.414-7.071 7.071z"></path>
</symbol>

<symbol id="icon-menu" viewBox="0 0 20 20">
<title>menu</title>
<path d="M0 3h20v2h-20v-2zM0 9h20v2h-20v-2zM0 15h20v2h-20v-2z"></path>
</symbol>

<symbol id="icon-dots-three-vertical" viewBox="0 0 20 20">
<title>dots-three-vertical</title>
<path d="M10.001 7.8c-1.215 0-2.201 0.985-2.201 2.2s0.986 2.2 2.201 2.2c1.215 0 2.199-0.985 2.199-2.2s-0.984-2.2-2.199-2.2zM10.001 5.2c1.215 0 2.199-0.986 2.199-2.2s-0.984-2.2-2.199-2.2c-1.215 0-2.201 0.985-2.201 2.2s0.986 2.2 2.201 2.2zM10.001 14.8c-1.215 0-2.201 0.985-2.201 2.2s0.986 2.2 2.201 2.2c1.215 0 2.199-0.985 2.199-2.2s-0.984-2.2-2.199-2.2z"></path>
</symbol>

<symbol id="facebook" viewBox="88.428 12.828 107.543 207.085">
<title>Login with Facebook</title>
<path d="M158.232 219.912v-94.461h31.707l4.747-36.813h-36.454V65.134c0-10.658 2.96-17.922 18.245-17.922l19.494-.009V14.278c-3.373-.447-14.944-1.449-28.406-1.449-28.106 0-47.348 17.155-47.348 48.661v27.149H88.428v36.813h31.788v94.461l38.016-.001z"></path>
</symbol>


<symbol id="google" viewBox="0 0 256 262" >
<title>Sign in with Google</title>
<path d="M255.878 133.451c0-10.734-.871-18.567-2.756-26.69H130.55v48.448h71.947c-1.45 12.04-9.283 30.172-26.69 42.356l-.244 1.622 38.755 30.023 2.685.268c24.659-22.774 38.875-56.282 38.875-96.027" fill="#4285F4"/><path d="M130.55 261.1c35.248 0 64.839-11.605 86.453-31.622l-41.196-31.913c-11.024 7.688-25.82 13.055-45.257 13.055-34.523 0-63.824-22.773-74.269-54.25l-1.531.13-40.298 31.187-.527 1.465C35.393 231.798 79.49 261.1 130.55 261.1" fill="#34A853"/><path d="M56.281 156.37c-2.756-8.123-4.351-16.827-4.351-25.82 0-8.994 1.595-17.697 4.206-25.82l-.073-1.73L15.26 71.312l-1.335.635C5.077 89.644 0 109.517 0 130.55s5.077 40.905 13.925 58.602l42.356-32.782" fill="#FBBC05"/><path d="M130.55 50.479c24.514 0 41.05 10.589 50.479 19.438l36.844-35.974C195.245 12.91 165.798 0 130.55 0 79.49 0 35.393 29.301 13.925 71.947l42.211 32.783c10.59-31.477 39.891-54.251 74.414-54.251" fill="#EB4335"/>
</symbol>

<symbol id="icon-checkbox-checked" viewBox="0 0 32 32">
<title>checkbox-checked</title>
<path d="M28 0h-24c-2.2 0-4 1.8-4 4v24c0 2.2 1.8 4 4 4h24c2.2 0 4-1.8 4-4v-24c0-2.2-1.8-4-4-4zM14 24.828l-7.414-7.414 2.828-2.828 4.586 4.586 9.586-9.586 2.828 2.828-12.414 12.414z"></path>
</symbol>

<symbol id="icon-checkbox-unchecked" viewBox="0 0 32 32">
<title>checkbox-unchecked</title>
<path d="M28 0h-24c-2.2 0-4 1.8-4 4v24c0 2.2 1.8 4 4 4h24c2.2 0 4-1.8 4-4v-24c0-2.2-1.8-4-4-4zM28 28h-24v-24h24v24z"></path>
</symbol>

<symbol id="flag-icon-ru" viewBox="0 0 640 480">
  <g fill-rule="evenodd" stroke-width="1pt">
    <path fill="#fff" d="M0 0h640v480H0z"/>
    <path fill="#0039a6" d="M0 160h640v320H0z"/>
    <path fill="#d52b1e" d="M0 320h640v160H0z"/>
  </g>
</symbol>

<symbol id="flag-icon-gb" viewBox="0 0 640 480">
  <defs>
    <clipPath id="a">
      <path fill-opacity=".7" d="M-85.3 0h682.6v512H-85.3z"/>
    </clipPath>
  </defs>
  <g clip-path="url(#a)" transform="translate(80) scale(.94)">
    <g stroke-width="1pt">
      <path fill="#012169" d="M-256 0H768v512H-256z"/>
      <path fill="#fff" d="M-256 0v57.2L653.5 512H768v-57.2L-141.5 0H-256zM768 0v57.2L-141.5 512H-256v-57.2L653.5 0H768z"/>
      <path fill="#fff" d="M170.7 0v512h170.6V0H170.7zM-256 170.7v170.6H768V170.7H-256z"/>
      <path fill="#c8102e" d="M-256 204.8v102.4H768V204.8H-256zM204.8 0v512h102.4V0H204.8zM-256 512L85.3 341.3h76.4L-179.7 512H-256zm0-512L85.3 170.7H9L-256 38.2V0zm606.4 170.7L691.7 0H768L426.7 170.7h-76.3zM768 512L426.7 341.3H503l265 132.5V512z"/>
    </g>
  </g>
</symbol>

<symbol id="flag-icon-pl" viewBox="0 0 640 480">
  <g fill-rule="evenodd">
    <path fill="#fff" d="M640 480H0V0h640z"/>
    <path fill="#dc143c" d="M640 480H0V240h640z"/>
  </g>
</symbol>

<symbol id="icon-language" viewBox="0 0 24 28">
<title>language</title>
<path d="M10.219 16.844c-0.031 0.109-0.797-0.25-1-0.328-0.203-0.094-1.125-0.609-1.359-0.766s-1.125-0.891-1.234-0.938v0c-0.562 0.859-1.281 1.875-2.094 2.828-0.281 0.328-1.125 1.391-1.641 1.719-0.078 0.047-0.531 0.094-0.594 0.063 0.25-0.187 0.969-1.078 1.281-1.437 0.391-0.453 2.25-3.047 2.562-3.641 0.328-0.594 1.312-2.562 1.359-2.75-0.156-0.016-1.391 0.406-1.719 0.516-0.313 0.094-1.172 0.297-1.234 0.344-0.063 0.063-0.016 0.25-0.047 0.313s-0.313 0.203-0.484 0.234c-0.156 0.047-0.516 0.063-0.734 0-0.203-0.047-0.391-0.25-0.438-0.328 0 0-0.063-0.094-0.078-0.359 0.187-0.063 0.5-0.078 0.844-0.172s1.188-0.344 1.641-0.5 1.328-0.484 1.594-0.547c0.281-0.047 0.984-0.516 1.359-0.641s0.641-0.281 0.656-0.203 0 0.422-0.016 0.516c-0.016 0.078-0.766 1.547-0.875 1.781-0.063 0.125-0.5 0.953-1.203 2.047 0.25 0.109 0.781 0.328 1 0.438 0.266 0.125 2.125 0.906 2.219 0.938s0.266 0.75 0.234 0.875zM7.016 9.25c0.047 0.266-0.031 0.375-0.063 0.438-0.156 0.297-0.547 0.5-0.781 0.594s-0.625 0.187-0.938 0.187c-0.141-0.016-0.422-0.063-0.766-0.406-0.187-0.203-0.328-0.75-0.266-0.688s0.516 0.125 0.719 0.078 0.688-0.187 0.906-0.25c0.234-0.078 0.703-0.203 0.859-0.219 0.156 0 0.281 0.063 0.328 0.266zM17.922 11.266l0.984 3.547-2.172-0.656zM0.609 23.766l10.844-3.625v-16.125l-10.844 3.641v16.109zM20 18.813l1.594 0.484-2.828-10.266-1.563-0.484-3.375 8.375 1.594 0.484 0.703-1.719 3.297 1.016zM12.141 3.781l8.953 2.875v-5.938zM17 24.453l2.469 0.203-0.844 2.5-0.625-1.031c-1.266 0.812-2.828 1.437-4.312 1.687-0.453 0.094-0.969 0.187-1.422 0.187h-1.313c-1.656 0-4.672-0.984-5.984-1.937-0.094-0.078-0.125-0.141-0.125-0.25 0-0.172 0.125-0.297 0.281-0.297 0.141 0 0.875 0.453 1.078 0.547 1.406 0.703 3.375 1.344 4.953 1.344 1.953 0 3.281-0.25 5.063-1.016 0.516-0.234 0.969-0.531 1.453-0.797zM24 7.594v16.859c-12.078-3.844-12.094-3.844-12.094-3.844-0.25 0.109-11.453 3.891-11.609 3.891-0.125 0-0.234-0.078-0.281-0.203 0-0.016-0.016-0.031-0.016-0.047v-16.844c0.016-0.047 0.031-0.125 0.063-0.156 0.094-0.109 0.219-0.141 0.313-0.172 0.047-0.016 1-0.328 2.328-0.781v-6l8.719 3.094c0.109-0.031 9.828-3.391 9.969-3.391 0.172 0 0.313 0.125 0.313 0.328v6.531z"></path>
</symbol>

<symbol id="icon-earth" viewBox="0 0 32 32">
<title>earth</title>
<path d="M16 0c-8.837 0-16 7.163-16 16s7.163 16 16 16 16-7.163 16-16-7.163-16-16-16zM16 30c-1.967 0-3.84-0.407-5.538-1.139l7.286-8.197c0.163-0.183 0.253-0.419 0.253-0.664v-3c0-0.552-0.448-1-1-1-3.531 0-7.256-3.671-7.293-3.707-0.188-0.188-0.442-0.293-0.707-0.293h-4c-0.552 0-1 0.448-1 1v6c0 0.379 0.214 0.725 0.553 0.894l3.447 1.724v5.871c-3.627-2.53-6-6.732-6-11.489 0-2.147 0.484-4.181 1.348-6h3.652c0.265 0 0.52-0.105 0.707-0.293l4-4c0.188-0.188 0.293-0.442 0.293-0.707v-2.419c1.268-0.377 2.61-0.581 4-0.581 2.2 0 4.281 0.508 6.134 1.412-0.13 0.109-0.256 0.224-0.376 0.345-1.133 1.133-1.757 2.64-1.757 4.243s0.624 3.109 1.757 4.243c1.139 1.139 2.663 1.758 4.239 1.758 0.099 0 0.198-0.002 0.297-0.007 0.432 1.619 1.211 5.833-0.263 11.635-0.014 0.055-0.022 0.109-0.026 0.163-2.541 2.596-6.084 4.208-10.004 4.208z"></path>
</symbol>

<symbol id="icon-email" viewBox="0 0 20 20">
<title>email</title>
<path d="M14.608 12.172c0 0.84 0.239 1.175 0.864 1.175 1.393 0 2.28-1.775 2.28-4.727 0-4.512-3.288-6.672-7.393-6.672-4.223 0-8.064 2.832-8.064 8.184 0 5.112 3.36 7.896 8.52 7.896 1.752 0 2.928-0.192 4.727-0.792l0.386 1.607c-1.776 0.577-3.674 0.744-5.137 0.744-6.768 0-10.393-3.72-10.393-9.456 0-5.784 4.201-9.72 9.985-9.72 6.024 0 9.215 3.6 9.215 8.016 0 3.744-1.175 6.6-4.871 6.6-1.681 0-2.784-0.672-2.928-2.161-0.432 1.656-1.584 2.161-3.145 2.161-2.088 0-3.84-1.609-3.84-4.848 0-3.264 1.537-5.28 4.297-5.28 1.464 0 2.376 0.576 2.782 1.488l0.697-1.272h2.016v7.057h0.002zM11.657 9.004c0-1.319-0.985-1.872-1.801-1.872-0.888 0-1.871 0.719-1.871 2.832 0 1.68 0.744 2.616 1.871 2.616 0.792 0 1.801-0.504 1.801-1.896v-1.68z"></path>
</symbol>

<symbol id="icon-trash-2" viewBox="0 0 24 24">
<title>delete record</title>
<path d="M21 5h-4v-1c0-1.7-1.3-3-3-3h-4c-1.7 0-3 1.3-3 3v1h-4c-0.6 0-1 0.4-1 1s0.4 1 1 1h1v13c0 1.7 1.3 3 3 3h10c1.7 0 3-1.3 3-3v-13h1c0.6 0 1-0.4 1-1s-0.4-1-1-1zM9 4c0-0.6 0.4-1 1-1h4c0.6 0 1 0.4 1 1v1h-6v-1zM18 20c0 0.6-0.4 1-1 1h-10c-0.6 0-1-0.4-1-1v-13h12v13z"></path>
<path d="M10 10c-0.6 0-1 0.4-1 1v6c0 0.6 0.4 1 1 1s1-0.4 1-1v-6c0-0.6-0.4-1-1-1z"></path>
<path d="M14 10c-0.6 0-1 0.4-1 1v6c0 0.6 0.4 1 1 1s1-0.4 1-1v-6c0-0.6-0.4-1-1-1z"></path>
</symbol>

<symbol id="icon-chevron-left" viewBox="0 0 24 24">
<title>chevron-left</title>
<path d="M10.4 12l5.3-5.3c0.4-0.4 0.4-1 0-1.4s-1-0.4-1.4 0l-6 6c-0.4 0.4-0.4 1 0 1.4l6 6c0.2 0.2 0.5 0.3 0.7 0.3s0.5-0.1 0.7-0.3c0.4-0.4 0.4-1 0-1.4l-5.3-5.3z"></path>
</symbol>

<symbol id="icon-chevron-right" viewBox="0 0 24 24">
<title>chevron-right</title>
<path d="M15.7 11.3l-6-6c-0.4-0.4-1-0.4-1.4 0s-0.4 1 0 1.4l5.3 5.3-5.3 5.3c-0.4 0.4-0.4 1 0 1.4 0.2 0.2 0.4 0.3 0.7 0.3s0.5-0.1 0.7-0.3l6-6c0.4-0.4 0.4-1 0-1.4z"></path>
</symbol>

<symbol id="icon-chevrons-left" viewBox="0 0 24 24">
<title>chevrons-left</title>
<path d="M7.4 12l4.3-4.3c0.4-0.4 0.4-1 0-1.4s-1-0.4-1.4 0l-5 5c-0.4 0.4-0.4 1 0 1.4l5 5c0.2 0.2 0.5 0.3 0.7 0.3s0.5-0.1 0.7-0.3c0.4-0.4 0.4-1 0-1.4l-4.3-4.3z"></path>
<path d="M14.4 12l4.3-4.3c0.4-0.4 0.4-1 0-1.4s-1-0.4-1.4 0l-5 5c-0.4 0.4-0.4 1 0 1.4l5 5c0.2 0.2 0.5 0.3 0.7 0.3s0.5-0.1 0.7-0.3c0.4-0.4 0.4-1 0-1.4l-4.3-4.3z"></path>
</symbol>

<symbol id="icon-chevrons-right" viewBox="0 0 24 24">
<title>chevrons-right</title>
<path d="M18.7 11.3l-5-5c-0.4-0.4-1-0.4-1.4 0s-0.4 1 0 1.4l4.3 4.3-4.3 4.3c-0.4 0.4-0.4 1 0 1.4 0.2 0.2 0.5 0.3 0.7 0.3s0.5-0.1 0.7-0.3l5-5c0.4-0.4 0.4-1 0-1.4z"></path>
<path d="M11.7 11.3l-5-5c-0.4-0.4-1-0.4-1.4 0s-0.4 1 0 1.4l4.3 4.3-4.3 4.3c-0.4 0.4-0.4 1 0 1.4 0.2 0.2 0.4 0.3 0.7 0.3s0.5-0.1 0.7-0.3l5-5c0.4-0.4 0.4-1 0-1.4z"></path>
</symbol>

<symbol id="icon-minus-circle" viewBox="0 0 24 24">
<!-- <title>minus-circle</title> -->
<path d="M12 1c-6.1 0-11 4.9-11 11s4.9 11 11 11 11-4.9 11-11-4.9-11-11-11zM12 21c-5 0-9-4-9-9s4-9 9-9c5 0 9 4 9 9s-4 9-9 9z"></path>
<path d="M16 11h-8c-0.6 0-1 0.4-1 1s0.4 1 1 1h8c0.6 0 1-0.4 1-1s-0.4-1-1-1z"></path>
</symbol>

<symbol id="icon-plus" viewBox="0 0 24 24">
<title>plus</title>
<path d="M5 13h6v6c0 0.552 0.448 1 1 1s1-0.448 1-1v-6h6c0.552 0 1-0.448 1-1s-0.448-1-1-1h-6v-6c0-0.552-0.448-1-1-1s-1 0.448-1 1v6h-6c-0.552 0-1 0.448-1 1s0.448 1 1 1z"></path>
</symbol>

<symbol id="icon-minus" viewBox="0 0 24 24">
<title>minus</title>
<path d="M5 13h14c0.552 0 1-0.448 1-1s-0.448-1-1-1h-14c-0.552 0-1 0.448-1 1s0.448 1 1 1z"></path>
</symbol>

<symbol id="icon-home" viewBox="0 0 20 20">
<title>home page</title>
<path d="M18.672 11h-1.672v6c0 0.445-0.194 1-1 1h-4v-6h-4v6h-4c-0.806 0-1-0.555-1-1v-6h-1.672c-0.598 0-0.47-0.324-0.060-0.748l8.024-8.032c0.195-0.202 0.451-0.302 0.708-0.312 0.257 0.010 0.513 0.109 0.708 0.312l8.023 8.031c0.411 0.425 0.539 0.749-0.059 0.749z"></path>
</symbol>

</defs>
</svg>